<svg xmlns="http://www.w3.org/2000/svg" version="1.1" xmlns:xlink="http://www.w3.org/1999/xlink" xmlns:svgjs="http://svgjs.dev/svgjs" width="1500" height="2046" viewBox="0 0 1500 2046"><g transform="matrix(1,0,0,1,-0.6219497082666976,0.8283400809716568)"><svg viewBox="0 0 181 247" data-background-color="#ffffff" preserveAspectRatio="xMidYMid meet" height="2046" width="1500" xmlns="http://www.w3.org/2000/svg" xmlns:xlink="http://www.w3.org/1999/xlink"><g id="tight-bounds" transform="matrix(1,0,0,1,0.07504859813084863,-0.09999999999999432)"><svg viewBox="0 0 180.8499028037383 247.2" height="247.2" width="180.8499028037383"><g><svg viewBox="0 0 180.8499028037383 247.2" height="247.2" width="180.8499028037383"><g><svg viewBox="0 0 180.8499028037383 247.2" height="247.2" width="180.8499028037383"><g id="textblocktransform"><svg viewBox="0 0 180.8499028037383 247.2" height="247.2" width="180.8499028037383" id="textblock"><g><svg viewBox="0 0 180.8499028037383 247.2" height="247.2" width="180.8499028037383"><rect width="180.8499028037383" height="247.2" x="0" y="0" opacity="1" fill="#222222" data-fill-palette-color="tertiary"></rect><g transform="matrix(1,0,0,1,23.607599999999998,23.607600000000012)"><svg width="133.63470280373832" viewBox="2.81 -36.06 24.44 36.57" height="199.98479999999998" data-palette-color="#ffffff"><path d="M14.79 0.51L14.79 0.51Q11.55 0.51 8.54-0.44 5.54-1.39 2.81-3.37L2.81-3.37 2.81-10.96 6.54-10.96 7.35-5.37Q8.94-4.39 10.79-3.86 12.65-3.32 14.79-3.32L14.79-3.32Q17.24-3.32 18.93-4.06 20.63-4.81 21.53-6.13 22.44-7.45 22.44-9.2L22.44-9.2Q22.44-10.84 21.66-12.08 20.87-13.33 19.08-14.27 17.29-15.21 14.18-15.92L14.18-15.92Q10.52-16.77 8-18.2 5.47-19.63 4.16-21.67 2.86-23.71 2.86-26.34L2.86-26.34Q2.86-29.13 4.33-31.32 5.81-33.52 8.45-34.79 11.08-36.06 14.6-36.06L14.6-36.06Q18.33-36.06 21.2-34.92 24.07-33.79 25.93-32.18L25.93-32.18 25.93-25.07 22.19-25.07 21.39-30.15Q20.29-31.03 18.65-31.62 17.02-32.2 14.6-32.2L14.6-32.2Q12.55-32.2 10.99-31.48 9.42-30.76 8.54-29.47 7.67-28.17 7.67-26.42L7.67-26.42Q7.67-24.88 8.46-23.73 9.25-22.58 11.05-21.72 12.84-20.85 15.84-20.09L15.84-20.09Q21.46-18.7 24.35-15.98 27.25-13.26 27.25-9.25L27.25-9.25Q27.25-6.4 25.71-4.19 24.17-1.98 21.37-0.73 18.58 0.51 14.79 0.51Z" opacity="1" transform="matrix(1,0,0,1,0,0)" fill="#ffffff" class="wordmark-text-0" data-fill-palette-color="quaternary" id="text-0"></path></svg></g></svg></g></svg></g></svg></g></svg></g><defs></defs></svg><rect width="180.8499028037383" height="247.2" fill="none" stroke="none" visibility="hidden"></rect></g></svg></g></svg>